<?xml version="1.0" encoding="utf-8"?>
<!-- Generator: Adobe Illustrator 17.0.0, SVG Export Plug-In . SVG Version: 6.00 Build 0)  -->
<!DOCTYPE svg PUBLIC "-//W3C//DTD SVG 1.1//EN" "http://www.w3.org/Graphics/SVG/1.1/DTD/svg11.dtd">
<svg version="1.1" id="Слой_1" xmlns="http://www.w3.org/2000/svg" xmlns:xlink="http://www.w3.org/1999/xlink" x="0px" y="0px"
	 width="198.43px" height="70.87px" viewBox="0 0 198.43 70.87" enable-background="new 0 0 198.43 70.87" xml:space="preserve">
<g>
	<path fill="#EFEFEF" d="M17.749,27.352c-0.407,0.928-0.871,2.026-1.392,3.296c0.114,0.326,0.48,0.879,1.099,1.66
		c0.114,0.163,0.089,0.326-0.073,0.488C17.22,32.959,17,33.04,16.724,33.04c-0.391,0-0.732-0.179-1.025-0.537
		c-1.074,2.425-2.295,4.891-3.662,7.397c-1.433,2.669-2.458,4.321-3.076,4.956c-0.537,0.537-1.074,0.806-1.611,0.806
		c-0.505,0-0.952-0.204-1.343-0.61c-0.619,0.26-1.066,0.391-1.343,0.391c-0.57,0-1.009-0.496-1.318-1.489
		C2.921,42.554,2.71,40.56,2.71,37.972c0-3.694,0.317-6.453,0.952-8.276c-0.358,0.326-1.042,1.042-2.051,2.148
		c-0.179,0.195-0.383,0.293-0.61,0.293c-0.31,0-0.464-0.138-0.464-0.415c0-0.146,0.073-0.317,0.22-0.513
		c0.977-1.318,2.254-3.068,3.833-5.249c0.407-0.586,0.83-0.879,1.27-0.879c0.488,0,1.237,0.391,2.246,1.172
		c0.211,0.179,0.317,0.375,0.317,0.586c0,0.407-0.293,0.708-0.879,0.903c-1.433,3.06-2.148,6.502-2.148,10.327
		c0,1.97,0.236,3.613,0.708,4.932c0.179,0.521,0.423,0.781,0.732,0.781c0.309,0,0.667-0.276,1.074-0.83
		c1.253-1.741,2.49-3.874,3.711-6.396c1.09-2.262,1.814-4.077,2.173-5.444c-0.212-0.374-0.317-0.871-0.317-1.489
		c0-1.106,0.358-2.58,1.074-4.419c0.309-0.765,0.708-1.147,1.196-1.147c0.276,0,0.846,0.252,1.709,0.757
		c0.423,0.244,0.635,0.57,0.635,0.977C18.091,26.082,17.977,26.603,17.749,27.352z"/>
	<path fill="#EFEFEF" d="M25.269,28.401c-0.391,2.197-1.408,5.852-3.052,10.962c0.472-0.423,1.123-1.196,1.953-2.319
		c0.114-0.146,0.228-0.22,0.342-0.22c0.26,0,0.293,0.228,0.098,0.684c-0.082,0.179-0.765,1.294-2.051,3.345
		c-0.977,1.563-1.693,2.946-2.148,4.15c-0.146,0.374-0.415,0.562-0.806,0.562s-0.92-0.188-1.587-0.562
		c-0.423-0.228-0.635-0.398-0.635-0.513c0-0.098,0.089-0.31,0.269-0.635c0.879-1.546,1.855-4.134,2.93-7.764
		c1.025-3.516,1.603-6.128,1.733-7.837c0.049-0.732-0.024-1.099-0.22-1.099c-0.146,0-0.407,0.179-0.781,0.537L19.8,29.109
		c-0.537,0.488-0.806,0.513-0.806,0.073c0-0.13,0.073-0.293,0.22-0.488c0.765-1.074,1.579-2.091,2.441-3.052
		c0.26-0.276,0.513-0.415,0.757-0.415c0.26,0,0.643,0.179,1.147,0.537c0.749,0.195,1.164,0.317,1.245,0.366
		c0.374,0.228,0.562,0.651,0.562,1.27C25.366,27.693,25.333,28.027,25.269,28.401z M28.711,17.708
		c0.26,0.195,0.391,0.415,0.391,0.659c0,0.472-0.7,1.205-2.1,2.197c-0.928,0.635-1.823,0.863-2.686,0.684
		c-0.488-0.098-0.912-0.276-1.27-0.537c-0.114-0.098-0.2-0.199-0.256-0.305c-0.057-0.105-0.069-0.191-0.037-0.256
		c0.049-0.065,0.146-0.081,0.293-0.049c1.497-1.302,2.482-2.238,2.954-2.808c0.374-0.423,0.643-0.635,0.806-0.635
		C27.1,16.658,27.734,17.008,28.711,17.708z"/>
	<path fill="#EFEFEF" d="M49.609,47.591c-1.514,2.344-2.734,3.516-3.662,3.516c-1.14,0-2.771-1.526-4.895-4.578
		s-3.943-6.474-5.457-10.266c-1.937,2.393-3.28,5.192-4.028,8.398c-0.179,0.716-0.391,1.074-0.635,1.074
		c-0.098,0-0.293-0.058-0.586-0.171c-1.351-0.586-2.026-1.18-2.026-1.782c0-0.081,0.098-0.627,0.293-1.636
		c1.872-10.335,4.313-19.165,7.324-26.489c2.246-5.469,4.272-9.033,6.079-10.693c0.456-0.439,0.903-0.659,1.343-0.659
		c0.456,0,1.042,0.269,1.758,0.806c0.813,0.667,1.627,1.335,2.441,2.002C47.786,7.275,47.9,7.454,47.9,7.649
		c0,0.293-0.188,0.439-0.562,0.439c-0.179,0-0.358-0.049-0.537-0.146c-0.749-0.374-1.311-0.562-1.685-0.562
		c-1.025,0-2.148,0.993-3.369,2.979C37.37,17.505,34.22,26.823,32.3,38.313c0.391-0.798,1.277-2.319,2.661-4.565
		c-0.179-0.569-0.269-0.903-0.269-1.001c0-0.391,0.553-0.691,1.66-0.903c2.213-3.223,4.028-5.387,5.444-6.494
		c0.504-0.391,0.895-0.586,1.172-0.586c0.276,0,0.789,0.399,1.538,1.196c1.172,0.472,1.758,1.058,1.758,1.758
		c0,0.228-0.033,0.521-0.098,0.879c-0.31,1.351-0.749,2.539-1.318,3.564c-0.293,0.537-0.603,0.806-0.928,0.806
		c-0.228,0-0.586-0.089-1.074-0.269c-0.928-0.325-1.392-0.659-1.392-1.001c0-0.211,0.146-0.374,0.439-0.488
		c0.684-0.586,1.106-1.741,1.27-3.467c0.032-0.407-0.073-0.61-0.317-0.61c-0.146,0-0.342,0.09-0.586,0.269
		c-1.791,1.302-3.329,3.19-4.614,5.664c2.474,7.634,5.29,12.41,8.447,14.331c0.391,0.228,0.789,0.342,1.196,0.342
		c0.586,0,1.033-0.171,1.343-0.513c0.309-0.342,0.586-0.513,0.83-0.513c0.228,0,0.342,0.122,0.342,0.366
		C49.805,47.225,49.739,47.396,49.609,47.591z"/>
	<path fill="#EFEFEF" d="M61.06,13.851c0.455,0.244,0.684,0.521,0.684,0.83c0,0.212-0.156,0.317-0.465,0.317
		c-0.064,0-0.166-0.012-0.305-0.037s-0.24-0.037-0.305-0.037c-0.619,0-1.367,0.676-2.247,2.026
		c-0.781,1.205-1.864,3.825-3.247,7.861c-0.13,0.358-0.179,0.57-0.146,0.635c0.049,0.114,0.26,0.179,0.635,0.195
		c0.96,0.082,2.246,0.049,3.857-0.098c0.553-0.049,0.83,0.188,0.83,0.708c0,0.358-0.211,0.578-0.635,0.659
		c-0.342,0.049-2.14,0.195-5.395,0.439c-1.953,5.713-3.142,10.547-3.564,14.502c-0.017,0.212-0.024,0.398-0.024,0.562
		c0,0.554,0.138,0.83,0.415,0.83c0.439,0,1.766-1.066,3.979-3.198c0.26-0.261,0.513-0.391,0.757-0.391
		c0.211,0,0.342,0.09,0.391,0.269c0.049,0.195-0.024,0.423-0.22,0.684c-1.318,1.741-2.612,3.223-3.882,4.443
		c-0.537,0.504-0.985,0.757-1.343,0.757c-0.358,0-0.912-0.285-1.66-0.854c-0.928-0.244-1.392-0.732-1.392-1.465
		c0-0.114,0.016-0.244,0.049-0.391c0.602-4.199,1.782-9.367,3.54-15.503c-0.863-0.114-1.644-0.228-2.344-0.342
		c-0.31-0.049-0.464-0.244-0.464-0.586c0-0.374,0.163-0.602,0.488-0.684c0.325-0.081,0.928-0.26,1.807-0.537
		c0.537-0.179,1.058-0.423,1.563-0.732c1.741-5.387,3.108-8.878,4.102-10.474c0.569-0.911,1.18-1.367,1.831-1.367
		C58.968,12.874,59.871,13.2,61.06,13.851z"/>
	<path fill="#EFEFEF" d="M74.609,29.549c-0.033,1.449-0.383,3.369-1.049,5.762c-1.059,3.776-2.557,6.706-4.492,8.789
		c-1.025,1.106-2.166,1.66-3.418,1.66c-0.488,0-1.115-0.106-1.881-0.317c-1.529-0.098-2.775-0.578-3.734-1.44
		c-1.043-0.944-1.531-2.156-1.465-3.638c0.065-1.726,0.659-4.134,1.782-7.227c1.236-3.369,2.523-5.794,3.857-7.275
		c0.635-0.716,1.156-1.074,1.563-1.074c0.553,0,1.449,0.57,2.686,1.709c0.342-0.163,1.041-0.464,2.1-0.903
		c0.537-0.179,0.943-0.269,1.221-0.269c0.635,0,1.344,0.594,2.125,1.782C74.406,27.84,74.642,28.654,74.609,29.549z M71.802,30.257
		c0.113-1.09,0.17-1.782,0.17-2.075c0-0.684-0.211-1.025-0.635-1.025c-0.162,0-0.375,0.033-0.635,0.098l-3.783,1.538
		c-0.439,0.179-0.693,0.269-0.758,0.269c-0.131,0-0.26-0.154-0.391-0.464c-0.943,1.156-1.822,2.824-2.637,5.005
		c-0.635,1.709-1.074,3.239-1.318,4.59c-0.18,0.911-0.268,1.741-0.268,2.49c0,2.507,0.771,3.728,2.318,3.662
		c0.619-0.017,1.285-0.261,2.002-0.732c1.367-0.928,2.645-2.783,3.834-5.566C70.841,35.425,71.541,32.829,71.802,30.257z"/>
	<path fill="#EFEFEF" d="M91.773,26.644c0,2.132-0.285,4.167-0.854,6.104c-0.18,0.586-0.424,0.879-0.732,0.879
		c-0.229,0-0.732-0.325-1.514-0.977c-0.391-0.325-0.488-0.789-0.293-1.392c0.455-1.481,0.684-2.669,0.684-3.564
		c0-0.309-0.065-0.464-0.195-0.464c-0.195,0-0.513,0.293-0.952,0.879c-3.386,4.411-5.917,9.358-7.593,14.844
		c-0.537,1.741-0.993,2.612-1.367,2.612c-0.146,0-0.79-0.285-1.929-0.854c-0.554-0.276-0.741-0.813-0.562-1.611
		c1.285-5.632,2.669-10.384,4.15-14.258c-1.205,1.27-1.97,2.141-2.295,2.612c-0.131,0.195-0.31,0.293-0.537,0.293
		c-0.277,0-0.415-0.122-0.415-0.366c0-0.146,0.064-0.309,0.195-0.488c0.797-0.96,1.863-2.425,3.198-4.395
		c0.406-0.716,0.813-1.074,1.221-1.074c0.293,0,0.887,0.228,1.782,0.684c0.504,0.261,0.586,0.61,0.244,1.05
		c-0.358,0.472-1.034,2.141-2.026,5.005c-0.944,2.783-1.596,4.964-1.953,6.543c2.213-4.932,4.728-9.285,7.544-13.062
		c0.537-0.716,0.968-1.074,1.294-1.074c0.293,0,0.691,0.195,1.196,0.586c0.684,0.082,1.114,0.188,1.294,0.317
		C91.634,25.667,91.773,26.058,91.773,26.644z"/>
	<path fill="#EFEFEF" d="M109.96,28.108c-2.263,10.433-4.387,18.237-6.372,23.413c-3.841,10.059-8.251,15.088-13.232,15.088
		c-2.913,0-6.046-1.587-9.399-4.761c-0.293-0.277-0.439-0.57-0.439-0.879c0-0.488,0.229-0.732,0.684-0.732
		c0.229,0,0.448,0.089,0.659,0.269c2.653,2.262,5.021,3.394,7.104,3.394c3.824,0,7.3-3.19,10.425-9.57
		c2.457-4.997,4.597-11.702,6.42-20.117c0.113-0.602,0.301-1.521,0.562-2.759c-1.709,2.783-3.622,5.525-5.737,8.228
		c-2.035,2.604-3.637,4.395-4.809,5.371c-0.651,0.537-1.172,0.806-1.563,0.806c-0.31,0-0.627-0.171-0.952-0.513
		c-0.342-0.439-0.692-0.871-1.05-1.294c-0.163-0.195-0.244-0.374-0.244-0.537c0-0.017,0-0.032,0-0.049
		c0.032-0.195,0.179-0.334,0.439-0.415c0.781-1.058,1.514-3.345,2.197-6.86c0.521-2.767,0.879-5.396,1.074-7.886
		c0.032-0.586-0.041-0.879-0.22-0.879c-0.049,0-0.432,0.293-1.147,0.879c-1.14,0.96-1.758,1.44-1.855,1.44
		c-0.229,0-0.342-0.114-0.342-0.342c0-0.114,0.049-0.228,0.146-0.342c0.276-0.342,0.895-1.196,1.855-2.563
		c0.862-1.221,1.44-1.831,1.733-1.831c0.228,0,0.537,0.098,0.928,0.293c0.83-0.13,1.294-0.195,1.392-0.195
		c0.553,0,0.83,0.423,0.83,1.27c0,1.416-0.407,4.187-1.221,8.313c-0.814,4.125-1.481,6.792-2.002,7.996
		c1.627-1.286,3.743-3.809,6.347-7.568c2.539-3.662,4.117-6.421,4.736-8.276c0.032-1.09,0.269-1.636,0.708-1.636
		c0.342,0,0.977,0.35,1.904,1.05C110.041,26.302,110.188,27.034,109.96,28.108z"/>
	<path fill="#EFEFEF" d="M128.979,26.546c0.276,0.261,0.415,0.57,0.415,0.928c0,0.277-0.391,1.318-1.172,3.125
		c-1.074,2.49-2.295,6.274-3.662,11.353c-1.074,3.955-1.815,7.022-2.222,9.204c0.846-1.628,1.595-2.881,2.246-3.76
		c0.179-0.244,0.415-0.366,0.708-0.366c0.391,0,0.586,0.179,0.586,0.537c0,0.146-0.049,0.309-0.146,0.488
		c-2.897,5.029-4.533,10.709-4.907,17.041c-0.082,1.497-0.269,2.246-0.562,2.246s-1.042-0.595-2.246-1.782
		c-0.439-0.439-0.659-0.985-0.659-1.636c0-0.163,0.154-1.27,0.464-3.32c0.537-3.598,1.456-8.049,2.759-13.354
		c1.074-4.378,1.871-7.324,2.393-8.838c-1.596,2.767-3.524,5.062-5.786,6.885c-0.31,0.244-0.651,0.366-1.025,0.366
		c-0.537,0-1.083-0.236-1.636-0.708c-1.091-0.358-1.848-0.74-2.271-1.147c-0.521-0.505-0.766-1.221-0.732-2.148
		c0.098-2.425,0.879-5.176,2.344-8.252c1.367-2.913,2.84-5.135,4.419-6.665c1.025-0.993,1.978-1.489,2.856-1.489
		c0.846,0,2.205,0.847,4.077,2.539c0.244,0.212,0.366,0.399,0.366,0.562c0,0.212-0.171,0.317-0.513,0.317
		c-0.18,0-0.375-0.041-0.586-0.122c-1.025-0.391-1.75-0.586-2.173-0.586c-0.896,0-1.823,0.594-2.783,1.782
		c-1.254,1.546-2.377,3.377-3.369,5.493c-1.254,2.653-1.88,4.956-1.88,6.909c0,1.14,0.382,1.709,1.147,1.709
		c0.472,0,0.984-0.269,1.538-0.806c1.709-1.628,3.458-3.914,5.249-6.86c1.236-2.034,2.205-3.865,2.905-5.493
		c0.667-1.53,1.114-2.775,1.343-3.735c0.032-0.325,0.064-0.651,0.098-0.977c0.064-0.407,0.22-0.618,0.464-0.635
		C127.416,25.333,128.066,25.732,128.979,26.546z"/>
	<path fill="#EFEFEF" d="M148.926,27.303c-2.165,4.021-3.784,8.74-4.858,14.16c0.455-0.798,1.009-1.814,1.66-3.052
		c0.081-0.228,0.211-0.342,0.391-0.342c0.244,0,0.366,0.154,0.366,0.464c0,0.098-0.024,0.203-0.073,0.317
		c-1.042,2.376-1.726,4.207-2.051,5.493c-0.195,0.813-0.456,1.221-0.781,1.221c-0.326,0-0.961-0.317-1.904-0.952
		c-0.505-0.358-0.676-0.993-0.513-1.904c0.684-3.548,1.505-6.633,2.466-9.253c-3.142,5.11-5.778,8.879-7.91,11.304
		c-0.473,0.537-0.985,0.806-1.538,0.806c-0.456,0-0.993-0.188-1.611-0.562c-1.123-0.195-1.685-0.781-1.685-1.758
		c0-0.179,0.016-0.374,0.049-0.586c0.406-4.655,1.253-8.521,2.539-11.597c-0.277,0.261-0.692,0.643-1.245,1.147
		c-0.212,0.179-0.375,0.228-0.488,0.146c-0.131-0.098-0.106-0.285,0.073-0.562c0.879-1.286,1.399-2.132,1.563-2.539
		c0.504-1.27,1.033-2.254,1.587-2.954c0.293-0.358,0.602-0.537,0.928-0.537c0.439,0,1.082,0.261,1.929,0.781
		c0.228,0.146,0.342,0.293,0.342,0.439l-0.537,0.806c-0.814,1.237-1.677,3.418-2.588,6.543c-0.993,3.386-1.498,6.145-1.514,8.276
		c0,0.7,0.146,1.05,0.439,1.05c0.26,0,0.684-0.301,1.27-0.903c1.253-1.335,3.067-3.857,5.444-7.568
		c2.1-3.271,3.369-5.403,3.809-6.396c0.732-1.66,1.326-2.637,1.782-2.93c0.293-0.195,0.553-0.293,0.781-0.293
		c0.228,0,0.667,0.171,1.318,0.513c0.65,0.342,0.977,0.594,0.977,0.757c0,0.049-0.058,0.114-0.171,0.195
		C149.056,27.116,148.975,27.205,148.926,27.303z"/>
	<path fill="#EFEFEF" d="M162.865,38.045c-3.955,5.062-6.738,7.593-8.35,7.593c-0.766,0-1.733-0.529-2.905-1.587
		c-1.221-0.569-1.831-1.335-1.831-2.295c0-0.179,0.016-0.366,0.049-0.562c0.293-2.229,0.887-4.695,1.782-7.397
		c-0.603-0.309-0.903-0.602-0.903-0.879c0-0.228,0.171-0.342,0.513-0.342c0.26,0,0.528,0.073,0.806,0.22
		c1.448-3.255,2.75-5.566,3.906-6.934c0.748-0.911,1.424-1.367,2.026-1.367c0.276,0,0.96,0.236,2.051,0.708
		c-0.082-0.488,0.057-0.773,0.415-0.854c0.016,0,0.398,0,1.147,0c0.699,0,1.05,0.122,1.05,0.366c0,0.049-0.024,0.188-0.073,0.415
		c-0.049,0.228-0.073,0.439-0.073,0.635c0,0.586,0.008,1.311,0.024,2.173c0.016,0.863,0.024,1.44,0.024,1.733
		c0,2.019-0.554,3.426-1.66,4.224c-1.01,0.732-2.148,1.099-3.418,1.099c-0.668,0-1.774-0.179-3.32-0.537
		c-0.277,0.505-0.586,1.489-0.928,2.954c-0.456,1.855-0.668,3.499-0.635,4.932c0.016,0.847,0.284,1.27,0.806,1.27
		c0.195,0,0.447-0.049,0.757-0.146c1.888-0.667,4.517-2.702,7.886-6.104c0.211-0.212,0.423-0.317,0.635-0.317
		c0.309,0,0.464,0.146,0.464,0.439C163.109,37.662,163.027,37.85,162.865,38.045z M160.009,27.254c0-0.635-0.139-0.952-0.415-0.952
		c-0.18,0-0.439,0.13-0.781,0.391c-1.596,1.286-2.995,3.54-4.199,6.763c0.325,0.049,0.895,0.098,1.709,0.146
		c1.318,0.049,2.303-0.252,2.954-0.903c0.488-0.488,0.757-1.294,0.806-2.417C160.033,31.111,160.009,30.103,160.009,27.254z"/>
	<path fill="#EFEFEF" d="M177.514,38.045c-3.955,5.062-6.738,7.593-8.35,7.593c-0.766,0-1.733-0.529-2.905-1.587
		c-1.221-0.569-1.831-1.335-1.831-2.295c0-0.179,0.016-0.366,0.049-0.562c0.293-2.229,0.887-4.695,1.782-7.397
		c-0.603-0.309-0.903-0.602-0.903-0.879c0-0.228,0.171-0.342,0.513-0.342c0.26,0,0.528,0.073,0.806,0.22
		c1.448-3.255,2.75-5.566,3.906-6.934c0.748-0.911,1.424-1.367,2.026-1.367c0.276,0,0.96,0.236,2.051,0.708
		c-0.082-0.488,0.057-0.773,0.415-0.854c0.016,0,0.398,0,1.147,0c0.699,0,1.05,0.122,1.05,0.366c0,0.049-0.024,0.188-0.073,0.415
		c-0.049,0.228-0.073,0.439-0.073,0.635c0,0.586,0.008,1.311,0.024,2.173c0.016,0.863,0.024,1.44,0.024,1.733
		c0,2.019-0.554,3.426-1.66,4.224c-1.01,0.732-2.148,1.099-3.418,1.099c-0.668,0-1.774-0.179-3.32-0.537
		c-0.277,0.505-0.586,1.489-0.928,2.954c-0.456,1.855-0.668,3.499-0.635,4.932c0.016,0.847,0.284,1.27,0.806,1.27
		c0.195,0,0.447-0.049,0.757-0.146c1.888-0.667,4.517-2.702,7.886-6.104c0.211-0.212,0.423-0.317,0.635-0.317
		c0.309,0,0.464,0.146,0.464,0.439C177.758,37.662,177.676,37.85,177.514,38.045z M174.657,27.254c0-0.635-0.139-0.952-0.415-0.952
		c-0.18,0-0.439,0.13-0.781,0.391c-1.596,1.286-2.995,3.54-4.199,6.763c0.325,0.049,0.895,0.098,1.709,0.146
		c1.318,0.049,2.303-0.252,2.954-0.903c0.488-0.488,0.757-1.294,0.806-2.417C174.682,31.111,174.657,30.103,174.657,27.254z"/>
	<path fill="#EFEFEF" d="M197.973,36.312c-0.977,1.481-2.246,3.63-3.809,6.445c-0.293,0.732-0.578,1.465-0.854,2.197
		c-0.229,0.504-0.529,0.757-0.903,0.757c-0.293,0-0.725-0.122-1.294-0.366c-0.635-0.261-0.952-0.521-0.952-0.781
		c0-0.114,0.105-0.366,0.317-0.757c1.058-2.148,2.002-4.826,2.832-8.032c0.895-3.369,1.277-5.94,1.147-7.715
		c-0.033-0.716-0.195-1.074-0.488-1.074c-0.212,0-0.529,0.204-0.952,0.61c-4.102,4.004-7.65,9.358-10.645,16.064
		c-0.375,0.83-0.814,1.245-1.318,1.245c-0.358,0-0.952-0.203-1.782-0.61c-0.326-0.146-0.497-0.285-0.513-0.415
		c0-0.065,0.089-0.293,0.269-0.684c0.943-2.067,1.88-4.688,2.808-7.861c0.992-3.434,1.554-6.111,1.685-8.032
		c0.032-0.586,0.016-0.879-0.049-0.879c-0.017,0-0.244,0.22-0.684,0.659s-1.05,1.009-1.831,1.709c-0.146,0.146-0.31,0.22-0.488,0.22
		c-0.229,0-0.342-0.089-0.342-0.269c0-0.13,0.081-0.276,0.244-0.439c0.699-0.895,1.619-2.01,2.759-3.345
		c0.244-0.276,0.496-0.415,0.757-0.415c0.391,0,0.732,0.285,1.025,0.854c1.318,0.391,1.937,0.993,1.855,1.807
		c-0.18,1.791-1.099,5.021-2.759,9.692c1.09-2.1,2.677-4.447,4.761-7.043c2.083-2.596,3.629-4.13,4.639-4.602
		c0.504-0.228,0.862-0.342,1.074-0.342c0.211,0,0.553,0.179,1.025,0.537c1.351,0.472,2.018,1.253,2.002,2.344
		c0,1.14-0.277,2.971-0.83,5.493c-0.439,2.083-0.847,3.703-1.221,4.858c0.472-0.603,1.074-1.384,1.807-2.344
		c0.13-0.163,0.26-0.244,0.391-0.244c0.244,0,0.366,0.155,0.366,0.464C198.021,36.116,198.005,36.214,197.973,36.312z"/>
</g>
<g>
	<path fill="#EFEFEF" d="M101.087,12.368v4.233h0.423l3.648-4.233h2.157l-4.233,4.394c1.572,0.182,2.52,1.229,3.286,2.983
		c0.262,0.645,0.584,1.592,1.028,2.378h-1.854c-0.263-0.423-0.585-1.189-0.907-1.996c-0.665-1.572-1.572-2.298-3.205-2.298h-0.343
		v4.293h-1.754v-9.756H101.087z"/>
	<path fill="#EFEFEF" d="M117.692,17.165c0,3.608-2.52,5.18-4.857,5.18c-2.62,0-4.677-1.935-4.677-5.019
		c0-3.245,2.157-5.16,4.838-5.16C115.798,12.166,117.692,14.202,117.692,17.165z M109.973,17.266c0,2.137,1.209,3.75,2.943,3.75
		c1.692,0,2.963-1.593,2.963-3.79c0-1.653-0.827-3.729-2.923-3.729C110.88,13.497,109.973,15.432,109.973,17.266z"/>
	<path fill="#EFEFEF" d="M126.881,21.781c-0.464,0.222-1.492,0.564-2.802,0.564c-2.943,0-4.858-1.996-4.858-4.979
		c0-3.003,2.057-5.201,5.241-5.201c1.048,0,1.976,0.262,2.459,0.524l-0.403,1.351c-0.423-0.222-1.088-0.463-2.056-0.463
		c-2.237,0-3.447,1.673-3.447,3.688c0,2.258,1.451,3.648,3.387,3.648c1.008,0,1.673-0.242,2.177-0.463L126.881,21.781z"/>
	<path fill="#EFEFEF" d="M129.075,12.368h2.177l1.754,4.918c0.262,0.726,0.665,1.915,0.887,2.681h0.04
		c0.222-0.746,0.766-2.278,1.169-3.346l1.552-4.253h2.197l0.686,9.756h-1.693l-0.222-4.656c-0.04-1.068-0.121-2.298-0.161-3.487
		h-0.061c-0.262,0.887-0.544,1.653-1.088,3.165l-1.875,4.918h-1.27l-1.733-4.837c-0.323-0.907-0.746-2.318-0.988-3.225h-0.08
		c-0.041,1.149-0.081,2.439-0.142,3.507l-0.262,4.616h-1.633L129.075,12.368z"/>
	<path fill="#EFEFEF" d="M142.816,17.568c0.04,2.399,1.552,3.387,3.346,3.387c1.271,0,2.057-0.222,2.701-0.504l0.323,1.27
		c-0.625,0.282-1.714,0.625-3.266,0.625c-3.004,0-4.798-1.996-4.798-4.938s1.733-5.241,4.576-5.241c3.205,0,4.031,2.782,4.031,4.576
		c0,0.363-0.021,0.625-0.061,0.826H142.816z M148.017,16.298c0.021-1.109-0.463-2.862-2.459-2.862c-1.813,0-2.58,1.633-2.721,2.862
		H148.017z"/>
	<path fill="#EFEFEF" d="M158.435,12.368v1.391h-3.043v8.365h-1.774v-8.365h-3.044v-1.391H158.435z"/>
	<path fill="#EFEFEF" d="M168.551,17.165c0,3.608-2.52,5.18-4.857,5.18c-2.62,0-4.677-1.935-4.677-5.019
		c0-3.245,2.157-5.16,4.838-5.16C166.656,12.166,168.551,14.202,168.551,17.165z M160.831,17.266c0,2.137,1.209,3.75,2.943,3.75
		c1.692,0,2.963-1.593,2.963-3.79c0-1.653-0.827-3.729-2.923-3.729C161.738,13.497,160.831,15.432,160.831,17.266z"/>
	<path fill="#EFEFEF" d="M178.202,12.368v9.756h-1.773v-8.365h-3.347v2.5c0,2.741-0.262,4.576-1.531,5.402
		c-0.484,0.383-1.028,0.604-1.936,0.604l-0.182-1.391c0.343-0.061,0.726-0.202,0.968-0.403c0.907-0.665,1.008-2.036,1.008-4.213
		v-3.89H178.202z"/>
	<path fill="#EFEFEF" d="M189.909,17.165c0,3.608-2.52,5.18-4.857,5.18c-2.62,0-4.677-1.935-4.677-5.019
		c0-3.245,2.157-5.16,4.838-5.16C188.015,12.166,189.909,14.202,189.909,17.165z M182.189,17.266c0,2.137,1.209,3.75,2.943,3.75
		c1.692,0,2.963-1.593,2.963-3.79c0-1.653-0.827-3.729-2.923-3.729C183.097,13.497,182.189,15.432,182.189,17.266z"/>
	<path fill="#EFEFEF" d="M198.09,12.368v1.411h-4.233v8.345h-1.754v-9.756H198.09z"/>
</g>
<g>
</g>
<g>
</g>
<g>
</g>
<g>
</g>
<g>
</g>
<g>
</g>
</svg>
